<svg xmlns="http://www.w3.org/2000/svg" version="1.1" xmlns:xlink="http://www.w3.org/1999/xlink" width="512" height="512" x="0" y="0" viewBox="0 0 512 512" style="enable-background:new 0 0 512 512" xml:space="preserve" class=""><g><linearGradient id="a" x1="6.45" x2="514.65" y1="6.45" y2="514.65" gradientUnits="userSpaceOnUse"><stop stop-opacity="1" stop-color="#0cc0df" offset="0"></stop><stop stop-opacity="1" stop-color="#0ab3d0" offset="0.37"></stop><stop stop-opacity="1" stop-color="#3715b0" offset="0.8"></stop><stop stop-opacity="1" stop-color="#1717a3" offset="1"></stop></linearGradient><g data-name="Layer 2"><g data-name="Layer 1"><rect width="512" height="512" fill="url(#a)" rx="150" opacity="1" data-original="url(#a)" class=""></rect><path fill="#ffffff" d="M399.76 405h-74l-3.46-5.68-76.5-125.44c-1.93.42-3.89.79-5.78 1.12-.67.12-1.42.25-2.25.37-.36.07-.73.12-1.08.17h-.12c-1 .15-1.89.29-2.86.4l-1.28.17c-1 .12-2 .24-3 .33-1.15.12-2.18.21-3.17.29l-.49.09h-.64c-1 .07-1.94.12-2.91.17h-.88c-.76 0-1.53.07-2.3.09h-43.63V405h-63.17V214.11H214.4a85.17 85.17 0 0 0 33.12-6.61c.3-.11.6-.25.9-.38a85.33 85.33 0 0 0 26.13-17.69 86.48 86.48 0 0 0 14.71-19.33h-177V107h249.8l.77 11c.25 3.51.37 7 .37 10.5a148.46 148.46 0 0 1-44.29 105.91c-2 1.93-3.84 3.68-5.7 5.33-.64.56-1.29 1.14-1.93 1.69-.11.1-.23.19-.33.29-.82.69-1.65 1.37-2.5 2.07-.62.51-1.25 1-1.88 1.53-.34.27-.7.55-1.05.81l-.33.25-1.5 1.15L388.79 387z" opacity="1" data-original="#ffffff"></path></g></g></g></svg>